<?xml version="1.0" encoding="utf-8" standalone="no"?>
<!DOCTYPE svg PUBLIC "-//W3C//DTD SVG 1.1//EN"
  "http://www.w3.org/Graphics/SVG/1.1/DTD/svg11.dtd">
<svg xmlns:xlink="http://www.w3.org/1999/xlink" width="372.6285pt" height="252.3pt" viewBox="0 0 372.6285 252.3" xmlns="http://www.w3.org/2000/svg" version="1.1">
 <metadata>
  <rdf:RDF xmlns:dc="http://purl.org/dc/elements/1.1/" xmlns:cc="http://creativecommons.org/ns#" xmlns:rdf="http://www.w3.org/1999/02/22-rdf-syntax-ns#">
   <cc:Work>
    <dc:type rdf:resource="http://purl.org/dc/dcmitype/StillImage"/>
    <dc:date>2026-09-06T19:14:39.753064</dc:date>
    <dc:format>image/svg+xml</dc:format>
    <dc:creator>
     <cc:Agent>
      <dc:title>Matplotlib v3.11.1, https://matplotlib.org/</dc:title>
     </cc:Agent>
    </dc:creator>
   </cc:Work>
  </rdf:RDF>
 </metadata>
 <defs>
  <style type="text/css">*{stroke-linejoin: round; stroke-linecap: butt}</style>
 </defs>
 <g id="figure_1">
  <g id="patch_1">
   <path d="M 0 252.3 
L 372.6285 252.3 
L 372.6285 0 
L 0 0 
L 0 252.3 
z
" style="fill: none"/>
  </g>
  <g id="axes_1">
   <g id="line2d_1">
    <path d="M 245.6925 170.58 
L 245.6925 155.58 
L 221.6925 155.58 
L 221.6925 131.58 
L 245.6925 131.58 
L 245.6925 116.58 
" clip-path="url(#p6b822f2cb4)" style="fill: none; stroke: #17334a; stroke-width: 1.8; stroke-linecap: round"/>
   </g>
   <g id="line2d_2">
    <path d="M 215.6925 155.58 
L 215.6925 131.58 
" clip-path="url(#p6b822f2cb4)" style="fill: none; stroke: #17334a; stroke-width: 1.8; stroke-linecap: round"/>
   </g>
   <g id="line2d_3">
    <path d="M 196.4925 143.58 
L 215.6925 143.58 
" clip-path="url(#p6b822f2cb4)" style="fill: none; stroke: #17334a; stroke-width: 1.8; stroke-linecap: round"/>
   </g>
   <g id="line2d_4">
    <path d="M 230.6925 143.58 
L 245.6925 143.58 
" clip-path="url(#p6b822f2cb4)" style="fill: none; stroke: #17334a; stroke-width: 1.8; stroke-linecap: round"/>
   </g>
   <g id="patch_2">
    <path d="M 230.6925 147.18 
L 221.6925 143.58 
L 230.6925 139.98 
z
" clip-path="url(#p6b822f2cb4)" style="fill: #17334a"/>
   </g>
   <g id="line2d_5">
    <path d="M 245.6925 170.58 
L 245.6925 197.58 
L 245.6925 224.58 
" clip-path="url(#p6b822f2cb4)" style="fill: none; stroke: #17334a; stroke-width: 1.8; stroke-linecap: round"/>
   </g>
   <g id="line2d_6">
    <path d="M 245.6925 224.58 
L 245.6925 238.98 
L 236.6925 238.98 
L 254.6925 238.98 
M 239.3925 243.3 
L 251.9925 243.3 
M 243.8925 247.62 
L 247.4925 247.62 
" clip-path="url(#p6b822f2cb4)" style="fill: none; stroke: #17334a; stroke-width: 1.8; stroke-linecap: round"/>
   </g>
   <g id="line2d_7">
    <path d="M 245.6925 143.58 
L 256.4925 143.58 
L 267.2925 143.58 
" clip-path="url(#p6b822f2cb4)" style="fill: none; stroke: #17334a; stroke-width: 1.8; stroke-linecap: round"/>
   </g>
   <g id="line2d_8">
    <path d="M 267.2925 143.58 
L 267.2925 184.08 
L 267.2925 224.58 
" clip-path="url(#p6b822f2cb4)" style="fill: none; stroke: #17334a; stroke-width: 1.8; stroke-linecap: round"/>
   </g>
   <g id="line2d_9">
    <path d="M 267.2925 224.58 
L 256.4925 224.58 
L 245.6925 224.58 
" clip-path="url(#p6b822f2cb4)" style="fill: none; stroke: #17334a; stroke-width: 1.8; stroke-linecap: round"/>
   </g>
   <g id="line2d_10">
    <path d="M 245.6925 116.58 
L 245.6925 87.78 
L 236.6925 84.78 
L 254.6925 78.78 
L 236.6925 72.78 
L 254.6925 66.78 
L 236.6925 60.78 
L 254.6925 54.78 
L 245.6925 51.78 
L 245.6925 22.98 
" clip-path="url(#p6b822f2cb4)" style="fill: none; stroke: #17334a; stroke-width: 1.8; stroke-linecap: round"/>
   </g>
   <g id="line2d_11">
    <path d="M 245.6925 22.98 
L 182.6925 22.98 
L 119.6925 22.98 
" clip-path="url(#p6b822f2cb4)" style="fill: none; stroke: #17334a; stroke-width: 1.8; stroke-linecap: round"/>
   </g>
   <g id="line2d_12">
    <path d="M 119.6925 22.98 
L 119.6925 65.28 
L 128.6925 68.28 
L 110.6925 74.28 
L 128.6925 80.28 
L 110.6925 86.28 
L 128.6925 92.28 
L 110.6925 98.28 
L 119.6925 101.28 
L 119.6925 143.58 
" clip-path="url(#p6b822f2cb4)" style="fill: none; stroke: #17334a; stroke-width: 1.8; stroke-linecap: round"/>
   </g>
   <g id="line2d_13">
    <path d="M 119.6925 143.58 
L 158.0925 143.58 
L 196.4925 143.58 
" clip-path="url(#p6b822f2cb4)" style="fill: none; stroke: #17334a; stroke-width: 1.8; stroke-linecap: round"/>
   </g>
   <g id="line2d_14">
    <path d="M 119.6925 143.58 
L 119.6925 166.08 
L 128.6925 169.08 
L 110.6925 175.08 
L 128.6925 181.08 
L 110.6925 187.08 
L 128.6925 193.08 
L 110.6925 199.08 
L 119.6925 202.08 
L 119.6925 224.58 
" clip-path="url(#p6b822f2cb4)" style="fill: none; stroke: #17334a; stroke-width: 1.8; stroke-linecap: round"/>
   </g>
   <g id="line2d_15">
    <path d="M 119.6925 224.58 
L 182.6925 224.58 
L 245.6925 224.58 
" clip-path="url(#p6b822f2cb4)" style="fill: none; stroke: #17334a; stroke-width: 1.8; stroke-linecap: round"/>
   </g>
   <g id="line2d_16">
    <path d="M 245.6925 116.58 
L 274.4925 116.58 
L 303.2925 116.58 
" clip-path="url(#p6b822f2cb4)" style="fill: none; stroke: #17334a; stroke-width: 1.8; stroke-linecap: round"/>
   </g>
   <g id="line2d_17">
    <path d="M 119.6925 143.58 
L 107.0925 143.58 
L 94.4925 143.58 
" clip-path="url(#p6b822f2cb4)" style="fill: none; stroke: #17334a; stroke-width: 1.8; stroke-linecap: round"/>
   </g>
   <g id="text_1">
    <!-- M1 (NMOS) -->
    <g style="fill: #17334a" transform="translate(301.911563 143.14125) scale(0.12 -0.12)">
     <defs>
      <path id="DejaVuSans-30" d="M 628 4666 
L 1569 4666 
L 2759 1491 
L 3956 4666 
L 4897 4666 
L 4897 0 
L 4281 0 
L 4281 4097 
L 3078 897 
L 2444 897 
L 1241 4097 
L 1241 0 
L 628 0 
L 628 4666 
z
" transform="scale(0.015625)"/>
      <path id="DejaVuSans-14" d="M 794 531 
L 1825 531 
L 1825 4091 
L 703 3866 
L 703 4441 
L 1819 4666 
L 2450 4666 
L 2450 531 
L 3481 531 
L 3481 0 
L 794 0 
L 794 531 
z
" transform="scale(0.015625)"/>
      <path id="DejaVuSans-3" transform="scale(0.015625)"/>
      <path id="DejaVuSans-b" d="M 1984 4856 
Q 1566 4138 1362 3434 
Q 1159 2731 1159 2009 
Q 1159 1288 1364 580 
Q 1569 -128 1984 -844 
L 1484 -844 
Q 1016 -109 783 600 
Q 550 1309 550 2009 
Q 550 2706 781 3412 
Q 1013 4119 1484 4856 
L 1984 4856 
z
" transform="scale(0.015625)"/>
      <path id="DejaVuSans-31" d="M 628 4666 
L 1478 4666 
L 3547 763 
L 3547 4666 
L 4159 4666 
L 4159 0 
L 3309 0 
L 1241 3903 
L 1241 0 
L 628 0 
L 628 4666 
z
" transform="scale(0.015625)"/>
      <path id="DejaVuSans-32" d="M 2522 4238 
Q 1834 4238 1429 3725 
Q 1025 3213 1025 2328 
Q 1025 1447 1429 934 
Q 1834 422 2522 422 
Q 3209 422 3611 934 
Q 4013 1447 4013 2328 
Q 4013 3213 3611 3725 
Q 3209 4238 2522 4238 
z
M 2522 4750 
Q 3503 4750 4090 4092 
Q 4678 3434 4678 2328 
Q 4678 1225 4090 567 
Q 3503 -91 2522 -91 
Q 1538 -91 948 565 
Q 359 1222 359 2328 
Q 359 3434 948 4092 
Q 1538 4750 2522 4750 
z
" transform="scale(0.015625)"/>
      <path id="DejaVuSans-36" d="M 3425 4513 
L 3425 3897 
Q 3066 4069 2747 4153 
Q 2428 4238 2131 4238 
Q 1616 4238 1336 4038 
Q 1056 3838 1056 3469 
Q 1056 3159 1242 3001 
Q 1428 2844 1947 2747 
L 2328 2669 
Q 3034 2534 3370 2195 
Q 3706 1856 3706 1288 
Q 3706 609 3251 259 
Q 2797 -91 1919 -91 
Q 1588 -91 1214 -16 
Q 841 59 441 206 
L 441 856 
Q 825 641 1194 531 
Q 1563 422 1919 422 
Q 2459 422 2753 634 
Q 3047 847 3047 1241 
Q 3047 1584 2836 1778 
Q 2625 1972 2144 2069 
L 1759 2144 
Q 1053 2284 737 2584 
Q 422 2884 422 3419 
Q 422 4038 858 4394 
Q 1294 4750 2059 4750 
Q 2388 4750 2728 4690 
Q 3069 4631 3425 4513 
z
" transform="scale(0.015625)"/>
      <path id="DejaVuSans-c" d="M 513 4856 
L 1013 4856 
Q 1481 4119 1714 3412 
Q 1947 2706 1947 2009 
Q 1947 1309 1714 600 
Q 1481 -109 1013 -844 
L 513 -844 
Q 928 -128 1133 580 
Q 1338 1288 1338 2009 
Q 1338 2731 1133 3434 
Q 928 4138 513 4856 
z
" transform="scale(0.015625)"/>
     </defs>
     <use xlink:href="#DejaVuSans-30"/>
     <use xlink:href="#DejaVuSans-14" transform="translate(86.28125 0)"/>
     <use xlink:href="#DejaVuSans-3" transform="translate(149.90625 0)"/>
     <use xlink:href="#DejaVuSans-b" transform="translate(181.6875 0)"/>
     <use xlink:href="#DejaVuSans-31" transform="translate(220.703125 0)"/>
     <use xlink:href="#DejaVuSans-30" transform="translate(295.515625 0)"/>
     <use xlink:href="#DejaVuSans-32" transform="translate(381.796875 0)"/>
     <use xlink:href="#DejaVuSans-36" transform="translate(460.515625 0)"/>
     <use xlink:href="#DejaVuSans-c" transform="translate(524 0)"/>
    </g>
    <!-- B tied to S -->
    <g style="fill: #17334a" transform="translate(304.502813 155.85375) scale(0.12 -0.12)">
     <defs>
      <path id="DejaVuSans-25" d="M 1259 2228 
L 1259 519 
L 2272 519 
Q 2781 519 3026 730 
Q 3272 941 3272 1375 
Q 3272 1813 3026 2020 
Q 2781 2228 2272 2228 
L 1259 2228 
z
M 1259 4147 
L 1259 2741 
L 2194 2741 
Q 2656 2741 2882 2914 
Q 3109 3088 3109 3444 
Q 3109 3797 2882 3972 
Q 2656 4147 2194 4147 
L 1259 4147 
z
M 628 4666 
L 2241 4666 
Q 2963 4666 3353 4366 
Q 3744 4066 3744 3513 
Q 3744 3084 3544 2831 
Q 3344 2578 2956 2516 
Q 3422 2416 3680 2098 
Q 3938 1781 3938 1306 
Q 3938 681 3513 340 
Q 3088 0 2303 0 
L 628 0 
L 628 4666 
z
" transform="scale(0.015625)"/>
      <path id="DejaVuSans-57" d="M 1172 4494 
L 1172 3500 
L 2356 3500 
L 2356 3053 
L 1172 3053 
L 1172 1153 
Q 1172 725 1289 603 
Q 1406 481 1766 481 
L 2356 481 
L 2356 0 
L 1766 0 
Q 1100 0 847 248 
Q 594 497 594 1153 
L 594 3053 
L 172 3053 
L 172 3500 
L 594 3500 
L 594 4494 
L 1172 4494 
z
" transform="scale(0.015625)"/>
      <path id="DejaVuSans-4c" d="M 603 3500 
L 1178 3500 
L 1178 0 
L 603 0 
L 603 3500 
z
M 603 4863 
L 1178 4863 
L 1178 4134 
L 603 4134 
L 603 4863 
z
" transform="scale(0.015625)"/>
      <path id="DejaVuSans-48" d="M 3597 1894 
L 3597 1613 
L 953 1613 
Q 991 1019 1311 708 
Q 1631 397 2203 397 
Q 2534 397 2845 478 
Q 3156 559 3463 722 
L 3463 178 
Q 3153 47 2828 -22 
Q 2503 -91 2169 -91 
Q 1331 -91 842 396 
Q 353 884 353 1716 
Q 353 2575 817 3079 
Q 1281 3584 2069 3584 
Q 2775 3584 3186 3129 
Q 3597 2675 3597 1894 
z
M 3022 2063 
Q 3016 2534 2758 2815 
Q 2500 3097 2075 3097 
Q 1594 3097 1305 2825 
Q 1016 2553 972 2059 
L 3022 2063 
z
" transform="scale(0.015625)"/>
      <path id="DejaVuSans-47" d="M 2906 2969 
L 2906 4863 
L 3481 4863 
L 3481 0 
L 2906 0 
L 2906 525 
Q 2725 213 2448 61 
Q 2172 -91 1784 -91 
Q 1150 -91 751 415 
Q 353 922 353 1747 
Q 353 2572 751 3078 
Q 1150 3584 1784 3584 
Q 2172 3584 2448 3432 
Q 2725 3281 2906 2969 
z
M 947 1747 
Q 947 1113 1208 752 
Q 1469 391 1925 391 
Q 2381 391 2643 752 
Q 2906 1113 2906 1747 
Q 2906 2381 2643 2742 
Q 2381 3103 1925 3103 
Q 1469 3103 1208 2742 
Q 947 2381 947 1747 
z
" transform="scale(0.015625)"/>
      <path id="DejaVuSans-52" d="M 1959 3097 
Q 1497 3097 1228 2736 
Q 959 2375 959 1747 
Q 959 1119 1226 758 
Q 1494 397 1959 397 
Q 2419 397 2687 759 
Q 2956 1122 2956 1747 
Q 2956 2369 2687 2733 
Q 2419 3097 1959 3097 
z
M 1959 3584 
Q 2709 3584 3137 3096 
Q 3566 2609 3566 1747 
Q 3566 888 3137 398 
Q 2709 -91 1959 -91 
Q 1206 -91 779 398 
Q 353 888 353 1747 
Q 353 2609 779 3096 
Q 1206 3584 1959 3584 
z
" transform="scale(0.015625)"/>
     </defs>
     <use xlink:href="#DejaVuSans-25"/>
     <use xlink:href="#DejaVuSans-3" transform="translate(68.609375 0)"/>
     <use xlink:href="#DejaVuSans-57" transform="translate(100.390625 0)"/>
     <use xlink:href="#DejaVuSans-4c" transform="translate(139.59375 0)"/>
     <use xlink:href="#DejaVuSans-48" transform="translate(167.375 0)"/>
     <use xlink:href="#DejaVuSans-47" transform="translate(228.90625 0)"/>
     <use xlink:href="#DejaVuSans-3" transform="translate(292.390625 0)"/>
     <use xlink:href="#DejaVuSans-57" transform="translate(324.171875 0)"/>
     <use xlink:href="#DejaVuSans-52" transform="translate(363.375 0)"/>
     <use xlink:href="#DejaVuSans-3" transform="translate(424.5625 0)"/>
     <use xlink:href="#DejaVuSans-36" transform="translate(456.34375 0)"/>
    </g>
   </g>
   <g id="text_2">
    <!-- Rd = 2 kΩ -->
    <g style="fill: #17334a" transform="translate(258.2925 74.25375) scale(0.12 -0.12)">
     <defs>
      <path id="DejaVuSans-35" d="M 2841 2188 
Q 3044 2119 3236 1894 
Q 3428 1669 3622 1275 
L 4263 0 
L 3584 0 
L 2988 1197 
Q 2756 1666 2539 1819 
Q 2322 1972 1947 1972 
L 1259 1972 
L 1259 0 
L 628 0 
L 628 4666 
L 2053 4666 
Q 2853 4666 3247 4331 
Q 3641 3997 3641 3322 
Q 3641 2881 3436 2590 
Q 3231 2300 2841 2188 
z
M 1259 4147 
L 1259 2491 
L 2053 2491 
Q 2509 2491 2742 2702 
Q 2975 2913 2975 3322 
Q 2975 3731 2742 3939 
Q 2509 4147 2053 4147 
L 1259 4147 
z
" transform="scale(0.015625)"/>
      <path id="DejaVuSans-20" d="M 678 2906 
L 4684 2906 
L 4684 2381 
L 678 2381 
L 678 2906 
z
M 678 1631 
L 4684 1631 
L 4684 1100 
L 678 1100 
L 678 1631 
z
" transform="scale(0.015625)"/>
      <path id="DejaVuSans-15" d="M 1228 531 
L 3431 531 
L 3431 0 
L 469 0 
L 469 531 
Q 828 903 1448 1529 
Q 2069 2156 2228 2338 
Q 2531 2678 2651 2914 
Q 2772 3150 2772 3378 
Q 2772 3750 2511 3984 
Q 2250 4219 1831 4219 
Q 1534 4219 1204 4116 
Q 875 4013 500 3803 
L 500 4441 
Q 881 4594 1212 4672 
Q 1544 4750 1819 4750 
Q 2544 4750 2975 4387 
Q 3406 4025 3406 3419 
Q 3406 3131 3298 2873 
Q 3191 2616 2906 2266 
Q 2828 2175 2409 1742 
Q 1991 1309 1228 531 
z
" transform="scale(0.015625)"/>
      <path id="DejaVuSans-4e" d="M 581 4863 
L 1159 4863 
L 1159 1991 
L 2875 3500 
L 3609 3500 
L 1753 1863 
L 3688 0 
L 2938 0 
L 1159 1709 
L 1159 0 
L 581 0 
L 581 4863 
z
" transform="scale(0.015625)"/>
      <path id="DejaVuSans-33d" d="M 4647 556 
L 4647 0 
L 2772 0 
L 2772 556 
Q 3325 859 3634 1378 
Q 3944 1897 3944 2528 
Q 3944 3278 3531 3731 
Q 3119 4184 2444 4184 
Q 1769 4184 1355 3729 
Q 941 3275 941 2528 
Q 941 1897 1250 1378 
Q 1563 859 2119 556 
L 2119 0 
L 244 0 
L 244 556 
L 1241 556 
Q 747 991 519 1456 
Q 294 1922 294 2497 
Q 294 3491 894 4106 
Q 1491 4722 2444 4722 
Q 3391 4722 3994 4106 
Q 4594 3494 4594 2528 
Q 4594 1922 4372 1459 
Q 4150 997 3647 556 
L 4647 556 
z
" transform="scale(0.015625)"/>
     </defs>
     <use xlink:href="#DejaVuSans-35"/>
     <use xlink:href="#DejaVuSans-47" transform="translate(69.484375 0)"/>
     <use xlink:href="#DejaVuSans-3" transform="translate(132.96875 0)"/>
     <use xlink:href="#DejaVuSans-20" transform="translate(164.75 0)"/>
     <use xlink:href="#DejaVuSans-3" transform="translate(248.546875 0)"/>
     <use xlink:href="#DejaVuSans-15" transform="translate(280.328125 0)"/>
     <use xlink:href="#DejaVuSans-3" transform="translate(343.953125 0)"/>
     <use xlink:href="#DejaVuSans-4e" transform="translate(375.734375 0)"/>
     <use xlink:href="#DejaVuSans-33d" transform="translate(433.640625 0)"/>
    </g>
   </g>
   <g id="text_3">
    <!-- Rg1 = 60 kΩ -->
    <g style="fill: #17334a" transform="translate(30.615 86.59125) scale(0.12 -0.12)">
     <defs>
      <path id="DejaVuSans-4a" d="M 2906 1791 
Q 2906 2416 2648 2759 
Q 2391 3103 1925 3103 
Q 1463 3103 1205 2759 
Q 947 2416 947 1791 
Q 947 1169 1205 825 
Q 1463 481 1925 481 
Q 2391 481 2648 825 
Q 2906 1169 2906 1791 
z
M 3481 434 
Q 3481 -459 3084 -895 
Q 2688 -1331 1869 -1331 
Q 1566 -1331 1297 -1286 
Q 1028 -1241 775 -1147 
L 775 -588 
Q 1028 -725 1275 -790 
Q 1522 -856 1778 -856 
Q 2344 -856 2625 -561 
Q 2906 -266 2906 331 
L 2906 616 
Q 2728 306 2450 153 
Q 2172 0 1784 0 
Q 1141 0 747 490 
Q 353 981 353 1791 
Q 353 2603 747 3093 
Q 1141 3584 1784 3584 
Q 2172 3584 2450 3431 
Q 2728 3278 2906 2969 
L 2906 3500 
L 3481 3500 
L 3481 434 
z
" transform="scale(0.015625)"/>
      <path id="DejaVuSans-19" d="M 2113 2584 
Q 1688 2584 1439 2293 
Q 1191 2003 1191 1497 
Q 1191 994 1439 701 
Q 1688 409 2113 409 
Q 2538 409 2786 701 
Q 3034 994 3034 1497 
Q 3034 2003 2786 2293 
Q 2538 2584 2113 2584 
z
M 3366 4563 
L 3366 3988 
Q 3128 4100 2886 4159 
Q 2644 4219 2406 4219 
Q 1781 4219 1451 3797 
Q 1122 3375 1075 2522 
Q 1259 2794 1537 2939 
Q 1816 3084 2150 3084 
Q 2853 3084 3261 2657 
Q 3669 2231 3669 1497 
Q 3669 778 3244 343 
Q 2819 -91 2113 -91 
Q 1303 -91 875 529 
Q 447 1150 447 2328 
Q 447 3434 972 4092 
Q 1497 4750 2381 4750 
Q 2619 4750 2861 4703 
Q 3103 4656 3366 4563 
z
" transform="scale(0.015625)"/>
      <path id="DejaVuSans-13" d="M 2034 4250 
Q 1547 4250 1301 3770 
Q 1056 3291 1056 2328 
Q 1056 1369 1301 889 
Q 1547 409 2034 409 
Q 2525 409 2770 889 
Q 3016 1369 3016 2328 
Q 3016 3291 2770 3770 
Q 2525 4250 2034 4250 
z
M 2034 4750 
Q 2819 4750 3233 4129 
Q 3647 3509 3647 2328 
Q 3647 1150 3233 529 
Q 2819 -91 2034 -91 
Q 1250 -91 836 529 
Q 422 1150 422 2328 
Q 422 3509 836 4129 
Q 1250 4750 2034 4750 
z
" transform="scale(0.015625)"/>
     </defs>
     <use xlink:href="#DejaVuSans-35"/>
     <use xlink:href="#DejaVuSans-4a" transform="translate(69.484375 0)"/>
     <use xlink:href="#DejaVuSans-14" transform="translate(132.96875 0)"/>
     <use xlink:href="#DejaVuSans-3" transform="translate(196.59375 0)"/>
     <use xlink:href="#DejaVuSans-20" transform="translate(228.375 0)"/>
     <use xlink:href="#DejaVuSans-3" transform="translate(312.171875 0)"/>
     <use xlink:href="#DejaVuSans-19" transform="translate(343.953125 0)"/>
     <use xlink:href="#DejaVuSans-13" transform="translate(407.578125 0)"/>
     <use xlink:href="#DejaVuSans-3" transform="translate(471.203125 0)"/>
     <use xlink:href="#DejaVuSans-4e" transform="translate(502.984375 0)"/>
     <use xlink:href="#DejaVuSans-33d" transform="translate(560.890625 0)"/>
    </g>
   </g>
   <g id="text_4">
    <!-- Rg2 = 40 kΩ -->
    <g style="fill: #17334a" transform="translate(132.2925 187.39125) scale(0.12 -0.12)">
     <defs>
      <path id="DejaVuSans-17" d="M 2419 4116 
L 825 1625 
L 2419 1625 
L 2419 4116 
z
M 2253 4666 
L 3047 4666 
L 3047 1625 
L 3713 1625 
L 3713 1100 
L 3047 1100 
L 3047 0 
L 2419 0 
L 2419 1100 
L 313 1100 
L 313 1709 
L 2253 4666 
z
" transform="scale(0.015625)"/>
     </defs>
     <use xlink:href="#DejaVuSans-35"/>
     <use xlink:href="#DejaVuSans-4a" transform="translate(69.484375 0)"/>
     <use xlink:href="#DejaVuSans-15" transform="translate(132.96875 0)"/>
     <use xlink:href="#DejaVuSans-3" transform="translate(196.59375 0)"/>
     <use xlink:href="#DejaVuSans-20" transform="translate(228.375 0)"/>
     <use xlink:href="#DejaVuSans-3" transform="translate(312.171875 0)"/>
     <use xlink:href="#DejaVuSans-17" transform="translate(343.953125 0)"/>
     <use xlink:href="#DejaVuSans-13" transform="translate(407.578125 0)"/>
     <use xlink:href="#DejaVuSans-3" transform="translate(471.203125 0)"/>
     <use xlink:href="#DejaVuSans-4e" transform="translate(502.984375 0)"/>
     <use xlink:href="#DejaVuSans-33d" transform="translate(560.890625 0)"/>
    </g>
   </g>
   <g id="patch_3">
    <path d="M 245.6925 25.68 
C 246.408548 25.68 247.095366 25.395511 247.601688 24.889188 
C 248.108011 24.382866 248.3925 23.696048 248.3925 22.98 
C 248.3925 22.263952 248.108011 21.577134 247.601688 21.070812 
C 247.095366 20.564489 246.408548 20.28 245.6925 20.28 
C 244.976452 20.28 244.289634 20.564489 243.783312 21.070812 
C 243.276989 21.577134 242.9925 22.263952 242.9925 22.98 
C 242.9925 23.696048 243.276989 24.382866 243.783312 24.889188 
C 244.289634 25.395511 244.976452 25.68 245.6925 25.68 
z
" clip-path="url(#p6b822f2cb4)" style="fill: #17334a; stroke: #17334a; stroke-width: 1.8; stroke-linejoin: miter"/>
   </g>
   <g id="text_5">
    <!-- VDD = 5 V -->
    <g style="fill: #17334a" transform="translate(213.677812 14.969063) scale(0.12 -0.12)">
     <defs>
      <path id="DejaVuSans-39" d="M 1831 0 
L 50 4666 
L 709 4666 
L 2188 738 
L 3669 4666 
L 4325 4666 
L 2547 0 
L 1831 0 
z
" transform="scale(0.015625)"/>
      <path id="DejaVuSans-27" d="M 1259 4147 
L 1259 519 
L 2022 519 
Q 2988 519 3436 956 
Q 3884 1394 3884 2338 
Q 3884 3275 3436 3711 
Q 2988 4147 2022 4147 
L 1259 4147 
z
M 628 4666 
L 1925 4666 
Q 3281 4666 3915 4102 
Q 4550 3538 4550 2338 
Q 4550 1131 3912 565 
Q 3275 0 1925 0 
L 628 0 
L 628 4666 
z
" transform="scale(0.015625)"/>
      <path id="DejaVuSans-18" d="M 691 4666 
L 3169 4666 
L 3169 4134 
L 1269 4134 
L 1269 2991 
Q 1406 3038 1543 3061 
Q 1681 3084 1819 3084 
Q 2600 3084 3056 2656 
Q 3513 2228 3513 1497 
Q 3513 744 3044 326 
Q 2575 -91 1722 -91 
Q 1428 -91 1123 -41 
Q 819 9 494 109 
L 494 744 
Q 775 591 1075 516 
Q 1375 441 1709 441 
Q 2250 441 2565 725 
Q 2881 1009 2881 1497 
Q 2881 1984 2565 2268 
Q 2250 2553 1709 2553 
Q 1456 2553 1204 2497 
Q 953 2441 691 2322 
L 691 4666 
z
" transform="scale(0.015625)"/>
     </defs>
     <use xlink:href="#DejaVuSans-39"/>
     <use xlink:href="#DejaVuSans-27" transform="translate(68.40625 0)"/>
     <use xlink:href="#DejaVuSans-27" transform="translate(145.40625 0)"/>
     <use xlink:href="#DejaVuSans-3" transform="translate(222.40625 0)"/>
     <use xlink:href="#DejaVuSans-20" transform="translate(254.1875 0)"/>
     <use xlink:href="#DejaVuSans-3" transform="translate(337.984375 0)"/>
     <use xlink:href="#DejaVuSans-18" transform="translate(369.765625 0)"/>
     <use xlink:href="#DejaVuSans-3" transform="translate(433.390625 0)"/>
     <use xlink:href="#DejaVuSans-39" transform="translate(465.171875 0)"/>
    </g>
   </g>
   <g id="patch_4">
    <path d="M 119.6925 146.28 
C 120.408548 146.28 121.095366 145.995511 121.601688 145.489188 
C 122.108011 144.982866 122.3925 144.296048 122.3925 143.58 
C 122.3925 142.863952 122.108011 142.177134 121.601688 141.670812 
C 121.095366 141.164489 120.408548 140.88 119.6925 140.88 
C 118.976452 140.88 118.289634 141.164489 117.783312 141.670812 
C 117.276989 142.177134 116.9925 142.863952 116.9925 143.58 
C 116.9925 144.296048 117.276989 144.982866 117.783312 145.489188 
C 118.289634 145.995511 118.976452 146.28 119.6925 146.28 
z
" clip-path="url(#p6b822f2cb4)" style="fill: #17334a; stroke: #17334a; stroke-width: 1.8; stroke-linejoin: miter"/>
   </g>
   <g id="patch_5">
    <path d="M 303.2925 119.28 
C 304.008548 119.28 304.695366 118.995511 305.201688 118.489188 
C 305.708011 117.982866 305.9925 117.296048 305.9925 116.58 
C 305.9925 115.863952 305.708011 115.177134 305.201688 114.670812 
C 304.695366 114.164489 304.008548 113.88 303.2925 113.88 
C 302.576452 113.88 301.889634 114.164489 301.383312 114.670812 
C 300.876989 115.177134 300.5925 115.863952 300.5925 116.58 
C 300.5925 117.296048 300.876989 117.982866 301.383312 118.489188 
C 301.889634 118.995511 302.576452 119.28 303.2925 119.28 
z
" clip-path="url(#p6b822f2cb4)" style="fill: #ffffff; stroke: #17334a; stroke-width: 1.8; stroke-linejoin: miter"/>
   </g>
   <g id="text_6">
    <!-- Vo = Vd -->
    <g style="fill: #17334a" transform="translate(309.5925 121.05375) scale(0.12 -0.12)">
     <use xlink:href="#DejaVuSans-39"/>
     <use xlink:href="#DejaVuSans-52" transform="translate(60.640625 0)"/>
     <use xlink:href="#DejaVuSans-3" transform="translate(121.828125 0)"/>
     <use xlink:href="#DejaVuSans-20" transform="translate(153.609375 0)"/>
     <use xlink:href="#DejaVuSans-3" transform="translate(237.40625 0)"/>
     <use xlink:href="#DejaVuSans-39" transform="translate(269.1875 0)"/>
     <use xlink:href="#DejaVuSans-47" transform="translate(337.59375 0)"/>
    </g>
   </g>
   <g id="patch_6">
    <path d="M 94.4925 146.28 
C 95.208548 146.28 95.895366 145.995511 96.401688 145.489188 
C 96.908011 144.982866 97.1925 144.296048 97.1925 143.58 
C 97.1925 142.863952 96.908011 142.177134 96.401688 141.670812 
C 95.895366 141.164489 95.208548 140.88 94.4925 140.88 
C 93.776452 140.88 93.089634 141.164489 92.583312 141.670812 
C 92.076989 142.177134 91.7925 142.863952 91.7925 143.58 
C 91.7925 144.296048 92.076989 144.982866 92.583312 145.489188 
C 93.089634 145.995511 93.776452 146.28 94.4925 146.28 
z
" clip-path="url(#p6b822f2cb4)" style="fill: #ffffff; stroke: #17334a; stroke-width: 1.8; stroke-linejoin: miter"/>
   </g>
   <g id="text_7">
    <!-- Cb1 open (DC) -->
    <g style="fill: #17334a" transform="translate(0 146.89125) scale(0.12 -0.12)">
     <defs>
      <path id="DejaVuSans-26" d="M 4122 4306 
L 4122 3641 
Q 3803 3938 3442 4084 
Q 3081 4231 2675 4231 
Q 1875 4231 1450 3742 
Q 1025 3253 1025 2328 
Q 1025 1406 1450 917 
Q 1875 428 2675 428 
Q 3081 428 3442 575 
Q 3803 722 4122 1019 
L 4122 359 
Q 3791 134 3420 21 
Q 3050 -91 2638 -91 
Q 1578 -91 968 557 
Q 359 1206 359 2328 
Q 359 3453 968 4101 
Q 1578 4750 2638 4750 
Q 3056 4750 3426 4639 
Q 3797 4528 4122 4306 
z
" transform="scale(0.015625)"/>
      <path id="DejaVuSans-45" d="M 3116 1747 
Q 3116 2381 2855 2742 
Q 2594 3103 2138 3103 
Q 1681 3103 1420 2742 
Q 1159 2381 1159 1747 
Q 1159 1113 1420 752 
Q 1681 391 2138 391 
Q 2594 391 2855 752 
Q 3116 1113 3116 1747 
z
M 1159 2969 
Q 1341 3281 1617 3432 
Q 1894 3584 2278 3584 
Q 2916 3584 3314 3078 
Q 3713 2572 3713 1747 
Q 3713 922 3314 415 
Q 2916 -91 2278 -91 
Q 1894 -91 1617 61 
Q 1341 213 1159 525 
L 1159 0 
L 581 0 
L 581 4863 
L 1159 4863 
L 1159 2969 
z
" transform="scale(0.015625)"/>
      <path id="DejaVuSans-53" d="M 1159 525 
L 1159 -1331 
L 581 -1331 
L 581 3500 
L 1159 3500 
L 1159 2969 
Q 1341 3281 1617 3432 
Q 1894 3584 2278 3584 
Q 2916 3584 3314 3078 
Q 3713 2572 3713 1747 
Q 3713 922 3314 415 
Q 2916 -91 2278 -91 
Q 1894 -91 1617 61 
Q 1341 213 1159 525 
z
M 3116 1747 
Q 3116 2381 2855 2742 
Q 2594 3103 2138 3103 
Q 1681 3103 1420 2742 
Q 1159 2381 1159 1747 
Q 1159 1113 1420 752 
Q 1681 391 2138 391 
Q 2594 391 2855 752 
Q 3116 1113 3116 1747 
z
" transform="scale(0.015625)"/>
      <path id="DejaVuSans-51" d="M 3513 2113 
L 3513 0 
L 2938 0 
L 2938 2094 
Q 2938 2591 2744 2837 
Q 2550 3084 2163 3084 
Q 1697 3084 1428 2787 
Q 1159 2491 1159 1978 
L 1159 0 
L 581 0 
L 581 3500 
L 1159 3500 
L 1159 2956 
Q 1366 3272 1645 3428 
Q 1925 3584 2291 3584 
Q 2894 3584 3203 3211 
Q 3513 2838 3513 2113 
z
" transform="scale(0.015625)"/>
     </defs>
     <use xlink:href="#DejaVuSans-26"/>
     <use xlink:href="#DejaVuSans-45" transform="translate(69.828125 0)"/>
     <use xlink:href="#DejaVuSans-14" transform="translate(133.3125 0)"/>
     <use xlink:href="#DejaVuSans-3" transform="translate(196.9375 0)"/>
     <use xlink:href="#DejaVuSans-52" transform="translate(228.71875 0)"/>
     <use xlink:href="#DejaVuSans-53" transform="translate(289.90625 0)"/>
     <use xlink:href="#DejaVuSans-48" transform="translate(353.390625 0)"/>
     <use xlink:href="#DejaVuSans-51" transform="translate(414.921875 0)"/>
     <use xlink:href="#DejaVuSans-3" transform="translate(478.296875 0)"/>
     <use xlink:href="#DejaVuSans-b" transform="translate(510.078125 0)"/>
     <use xlink:href="#DejaVuSans-27" transform="translate(549.09375 0)"/>
     <use xlink:href="#DejaVuSans-26" transform="translate(626.09375 0)"/>
     <use xlink:href="#DejaVuSans-c" transform="translate(695.921875 0)"/>
    </g>
   </g>
  </g>
 </g>
 <defs>
  <clipPath id="p6b822f2cb4">
   <rect x="4.3125" y="0" width="368.316" height="252.3"/>
  </clipPath>
 </defs>
</svg>
