<?xml version="1.0" encoding="utf-8" standalone="no"?>
<!DOCTYPE svg PUBLIC "-//W3C//DTD SVG 1.1//EN"
  "http://www.w3.org/Graphics/SVG/1.1/DTD/svg11.dtd">
<svg xmlns:xlink="http://www.w3.org/1999/xlink" width="467.1216pt" height="351.52103pt" viewBox="0 0 467.1216 351.52103" xmlns="http://www.w3.org/2000/svg" version="1.1">
 <metadata>
  <rdf:RDF xmlns:dc="http://purl.org/dc/elements/1.1/" xmlns:cc="http://creativecommons.org/ns#" xmlns:rdf="http://www.w3.org/1999/02/22-rdf-syntax-ns#">
   <cc:Work>
    <dc:type rdf:resource="http://purl.org/dc/dcmitype/StillImage"/>
    <dc:date>2026-10-08T17:42:40.290068</dc:date>
    <dc:format>image/svg+xml</dc:format>
    <dc:creator>
     <cc:Agent>
      <dc:title>Matplotlib v3.11.1, https://matplotlib.org/</dc:title>
     </cc:Agent>
    </dc:creator>
   </cc:Work>
  </rdf:RDF>
 </metadata>
 <defs>
  <style type="text/css">*{stroke-linejoin: round; stroke-linecap: butt}</style>
 </defs>
 <g id="figure_1">
  <g id="patch_1">
   <path d="M 0 351.52103
L 467.1216 351.52103
L 467.1216 0
L 0 0
z
" style="fill: #ffffff"/>
  </g>
  <g id="axes_1">
   <g id="patch_2">
    <path d="M 130.398 198.6575
C 136.603753 198.6575 142.556169 196.191928 146.944299 191.803799
C 151.332428 187.415669 153.798 181.463253 153.798 175.2575
C 153.798 169.051747 151.332428 163.099331 146.944299 158.711201
C 142.556169 154.323072 136.603753 151.8575 130.398 151.8575
C 124.192247 151.8575 118.239831 154.323072 113.851701 158.711201
C 109.463572 163.099331 106.998 169.051747 106.998 175.2575
C 106.998 181.463253 109.463572 187.415669 113.851701 191.803799
C 118.239831 196.191928 124.192247 198.6575 130.398 198.6575
L 130.398 198.6575
z
" clip-path="url(#p2dc7c588a2)" style="fill: none; stroke: #2475d8; stroke-width: 1.8; stroke-linejoin: miter"/>
   </g>
   <g id="line2d_1">
    <path d="M 130.398 245.4575
L 130.398 198.6575
L 130.398 198.6575
M 130.398 151.8575
L 130.398 151.8575
L 130.398 105.0575
" clip-path="url(#p2dc7c588a2)" style="fill: none; stroke: #2475d8; stroke-width: 1.8; stroke-linecap: round"/>
   </g>
   <g id="line2d_2">
    <path d="M 135.078 186.9575
L 125.718 186.9575
" clip-path="url(#p2dc7c588a2)" style="fill: none; stroke: #2475d8; stroke-width: 1.8; stroke-linecap: round"/>
   </g>
   <g id="line2d_3">
    <path d="M 130.398 168.2375
L 130.398 158.8775
" clip-path="url(#p2dc7c588a2)" style="fill: none; stroke: #2475d8; stroke-width: 1.8; stroke-linecap: round"/>
   </g>
   <g id="line2d_4">
    <path d="M 135.078 163.5575
L 125.718 163.5575
" clip-path="url(#p2dc7c588a2)" style="fill: none; stroke: #2475d8; stroke-width: 1.8; stroke-linecap: round"/>
   </g>
   <g id="line2d_5">
    <path d="M 130.398 105.0575
L 200.598 105.0575
L 200.598 93.3575
L 247.398 93.3575
L 247.398 116.7575
L 200.598 116.7575
L 200.598 105.0575
M 247.398 105.0575
L 317.598 105.0575
" clip-path="url(#p2dc7c588a2)" style="fill: none; stroke: #2475d8; stroke-width: 1.8; stroke-linecap: round"/>
   </g>
   <g id="line2d_6">
    <path d="M 317.598 105.0575
L 317.598 151.8575
L 329.298 151.8575
L 329.298 198.6575
L 305.898 198.6575
L 305.898 151.8575
L 317.598 151.8575
M 317.598 198.6575
L 317.598 245.4575
" clip-path="url(#p2dc7c588a2)" style="fill: none; stroke: #2475d8; stroke-width: 1.8; stroke-linecap: round"/>
   </g>
   <g id="line2d_7">
    <path d="M 317.598 245.4575
L 223.998 245.4575
L 130.398 245.4575
" clip-path="url(#p2dc7c588a2)" style="fill: none; stroke: #193650; stroke-width: 1.8; stroke-linecap: round"/>
   </g>
   <g id="line2d_8">
    <path d="M 223.998 245.4575
L 223.998 264.1775
L 212.298 264.1775
L 235.698 264.1775
M 215.808 269.7935
L 232.188 269.7935
M 221.658 275.4095
L 226.338 275.4095
" clip-path="url(#p2dc7c588a2)" style="fill: none; stroke: #193650; stroke-width: 1.8; stroke-linecap: round"/>
   </g>
   <g id="text_1">
    <!-- Vth = 8 V -->
    <g style="fill: #2475d8" transform="translate(43.080656 180.374219) scale(0.13 -0.13)">
     <defs>
      <path id="MicrosoftYaHei-3c" d="M 4272 4841
L 2494 0
L 1800 0
L 56 4841
L 750 4841
L 2053 1056
Q 2119 869 2150 622
L 2166 622
Q 2191 838 2275 1063
L 3603 4841
L 4272 4841
z
" transform="scale(0.015625)"/>
      <path id="MicrosoftYaHei-5a" d="M 2206 34
Q 2006 -75 1666 -75
Q 738 -75 738 953
L 738 2950
L 144 2950
L 144 3456
L 738 3456
L 738 4288
L 1347 4481
L 1347 3456
L 2206 3456
L 2206 2950
L 1347 2950
L 1347 1063
Q 1347 722 1462 575
Q 1578 428 1847 428
Q 2053 428 2206 544
L 2206 34
z
" transform="scale(0.015625)"/>
      <path id="MicrosoftYaHei-4e" d="M 3466 0
L 2856 0
L 2856 1988
Q 2856 3031 2081 3031
Q 1684 3031 1421 2726
Q 1159 2422 1159 1959
L 1159 0
L 547 0
L 547 5116
L 1159 5116
L 1159 2888
L 1172 2888
Q 1569 3538 2300 3538
Q 3466 3538 3466 2128
L 3466 0
z
" transform="scale(0.015625)"/>
      <path id="MicrosoftYaHei-3" transform="scale(0.015625)"/>
      <path id="MicrosoftYaHei-23" d="M 3972 2497
L 788 2497
L 788 2969
L 3972 2969
L 3972 2497
z
M 3972 1053
L 788 1053
L 788 1525
L 3972 1525
L 3972 1053
z
" transform="scale(0.015625)"/>
      <path id="MicrosoftYaHei-1e" d="M 306 1350
Q 306 1769 556 2122
Q 806 2475 1200 2625
Q 884 2803 700 3081
Q 516 3359 516 3684
Q 516 4028 692 4312
Q 869 4597 1183 4759
Q 1497 4922 1875 4922
Q 2256 4922 2572 4761
Q 2888 4600 3063 4315
Q 3238 4031 3238 3684
Q 3238 3366 3058 3086
Q 2878 2806 2559 2625
Q 2953 2472 3200 2119
Q 3447 1766 3447 1350
Q 3447 938 3250 611
Q 3053 284 2690 103
Q 2328 -78 1875 -78
Q 1425 -78 1065 103
Q 706 284 506 612
Q 306 941 306 1350
z
M 906 1378
Q 906 947 1172 687
Q 1438 428 1878 428
Q 2309 428 2582 692
Q 2856 956 2856 1378
Q 2856 1778 2579 2051
Q 2303 2325 1878 2325
Q 1456 2325 1181 2058
Q 906 1791 906 1378
z
M 1081 3634
Q 1081 3309 1312 3076
Q 1544 2844 1878 2844
Q 2206 2844 2445 3078
Q 2684 3313 2684 3634
Q 2684 3963 2454 4191
Q 2225 4419 1878 4419
Q 1534 4419 1307 4195
Q 1081 3972 1081 3634
z
" transform="scale(0.015625)"/>
     </defs>
     <use xlink:href="#MicrosoftYaHei-3c"/>
     <use xlink:href="#MicrosoftYaHei-5a" transform="translate(67.625 0)"/>
     <use xlink:href="#MicrosoftYaHei-4e" transform="translate(104.875 0)"/>
     <use xlink:href="#MicrosoftYaHei-3" transform="translate(166.453125 0)"/>
     <use xlink:href="#MicrosoftYaHei-23" transform="translate(196.046875 0)"/>
     <use xlink:href="#MicrosoftYaHei-3" transform="translate(270.21875 0)"/>
     <use xlink:href="#MicrosoftYaHei-1e" transform="translate(299.8125 0)"/>
     <use xlink:href="#MicrosoftYaHei-3" transform="translate(358.453125 0)"/>
     <use xlink:href="#MicrosoftYaHei-3c" transform="translate(388.046875 0)"/>
    </g>
   </g>
   <g id="text_2">
    <!-- Rth ≈ 666.7 Ω -->
    <g style="fill: #2475d8" transform="translate(180.611516 86.865879) scale(0.13 -0.13)">
     <defs>
      <path id="MicrosoftYaHei-38" d="M 4159 0
L 3422 0
L 2619 1344
Q 2378 1747 2178 1892
Q 1978 2038 1700 2038
L 1250 2038
L 1250 0
L 625 0
L 625 4841
L 2100 4841
Q 2806 4841 3206 4500
Q 3606 4159 3606 3547
Q 3606 2541 2531 2241
L 2531 2225
Q 2731 2141 2876 1984
Q 3022 1828 3253 1450
L 4159 0
z
M 1250 4294
L 1250 2584
L 1988 2584
Q 2416 2584 2683 2834
Q 2950 3084 2950 3491
Q 2950 3869 2706 4081
Q 2463 4294 1997 4294
L 1250 4294
z
" transform="scale(0.015625)"/>
      <path id="MicrosoftYaHei-282" d="M 4053 3256
Q 4028 2750 3778 2472
Q 3528 2194 3094 2194
Q 2728 2194 2203 2550
Q 1872 2778 1669 2778
Q 1203 2778 1184 2191
L 700 2191
Q 722 2703 980 2978
Q 1238 3253 1659 3253
Q 2019 3253 2456 2959
Q 2894 2663 3116 2663
Q 3322 2663 3444 2823
Q 3566 2984 3572 3256
L 4053 3256
z
M 4053 1853
Q 4028 1347 3778 1067
Q 3528 788 3094 788
Q 2725 788 2203 1147
Q 1878 1369 1669 1369
Q 1203 1369 1184 784
L 700 784
Q 722 1294 980 1572
Q 1238 1850 1659 1850
Q 2022 1850 2456 1559
Q 2906 1256 3116 1256
Q 3319 1256 3441 1423
Q 3563 1591 3572 1853
L 4053 1853
z
" transform="scale(0.015625)"/>
      <path id="MicrosoftYaHei-1c" d="M 3181 4219
Q 2803 4413 2391 4413
Q 1763 4413 1381 3866
Q 1000 3319 994 2372
L 1009 2372
Q 1353 3038 2106 3038
Q 2734 3038 3109 2628
Q 3484 2219 3484 1541
Q 3484 831 3051 375
Q 2619 -81 1947 -81
Q 1209 -81 789 495
Q 369 1072 369 2131
Q 369 3413 920 4167
Q 1472 4922 2372 4922
Q 2888 4922 3181 4781
L 3181 4219
z
M 1031 1584
Q 1031 1106 1286 765
Q 1541 425 1963 425
Q 2363 425 2613 719
Q 2863 1013 2863 1475
Q 2863 1975 2627 2253
Q 2391 2531 1956 2531
Q 1544 2531 1287 2250
Q 1031 1969 1031 1584
z
" transform="scale(0.015625)"/>
      <path id="MicrosoftYaHei-14" d="M 372 322
Q 372 491 487 606
Q 603 722 775 722
Q 950 722 1065 605
Q 1181 488 1181 322
Q 1181 159 1065 42
Q 950 -75 772 -75
Q 600 -75 486 42
Q 372 159 372 322
z
" transform="scale(0.015625)"/>
      <path id="MicrosoftYaHei-1d" d="M 3422 4463
Q 2659 3131 2223 1998
Q 1788 866 1684 0
L 1047 0
Q 1163 853 1594 1947
Q 2025 3041 2747 4300
L 347 4300
L 347 4841
L 3422 4841
L 3422 4463
z
" transform="scale(0.015625)"/>
      <path id="MicrosoftYaHei-153" d="M 3119 0
L 3119 541
Q 4253 1391 4253 2634
Q 4253 3422 3801 3897
Q 3350 4372 2628 4372
Q 1891 4372 1436 3895
Q 981 3419 981 2631
Q 981 1397 2119 541
L 2119 0
L 331 0
L 331 544
L 1503 541
Q 331 1319 331 2666
Q 331 3694 956 4308
Q 1581 4922 2609 4922
Q 3659 4922 4281 4314
Q 4903 3706 4903 2672
Q 4903 1325 3731 541
L 4903 544
L 4903 0
L 3119 0
z
" transform="scale(0.015625)"/>
     </defs>
     <use xlink:href="#MicrosoftYaHei-38"/>
     <use xlink:href="#MicrosoftYaHei-5a" transform="translate(65.28125 0)"/>
     <use xlink:href="#MicrosoftYaHei-4e" transform="translate(102.53125 0)"/>
     <use xlink:href="#MicrosoftYaHei-3" transform="translate(164.109375 0)"/>
     <use xlink:href="#MicrosoftYaHei-282" transform="translate(193.703125 0)"/>
     <use xlink:href="#MicrosoftYaHei-3" transform="translate(267.96875 0)"/>
     <use xlink:href="#MicrosoftYaHei-1c" transform="translate(297.5625 0)"/>
     <use xlink:href="#MicrosoftYaHei-1c" transform="translate(356.203125 0)"/>
     <use xlink:href="#MicrosoftYaHei-1c" transform="translate(414.84375 0)"/>
     <use xlink:href="#MicrosoftYaHei-14" transform="translate(473.484375 0)"/>
     <use xlink:href="#MicrosoftYaHei-1d" transform="translate(497.5625 0)"/>
     <use xlink:href="#MicrosoftYaHei-3" transform="translate(556.203125 0)"/>
     <use xlink:href="#MicrosoftYaHei-153" transform="translate(585.796875 0)"/>
    </g>
   </g>
   <g id="text_3">
    <!-- 负载 RL -->
    <g style="fill: #2475d8" transform="translate(333.978 172.844629) scale(0.13 -0.13)">
     <defs>
      <path id="MicrosoftYaHei-abf" d="M 963 3353
L 3250 3353
Q 3556 3659 4031 4216
L 1819 4216
Q 1163 3503 463 3009
Q 325 3172 94 3384
Q 1356 4303 2094 5334
L 2600 5147
Q 2406 4891 2213 4659
L 4700 4659
L 4700 4241
Q 4294 3778 3881 3353
L 5600 3353
L 5600 641
L 5100 641
L 5100 2909
L 1463 2909
L 1463 603
L 963 603
L 963 3353
z
M 188 -403
Q 1806 -97 2550 422
Q 3019 728 3019 1603
L 3019 2609
L 3525 2609
L 3525 1716
Q 3525 1297 3469 997
Q 4906 334 6163 -416
L 5831 -878
Q 4513 -53 3325 534
Q 2863 -391 475 -891
Q 344 -653 188 -403
z
" transform="scale(0.015625)"/>
      <path id="MicrosoftYaHei-afa" d="M 2881 -416
Q 3622 91 4213 806
Q 3894 1769 3806 3234
L 125 3234
L 125 3653
L 1681 3653
L 1681 4234
L 381 4234
L 381 4628
L 1681 4628
L 1681 5266
L 2144 5266
L 2144 4628
L 3375 4628
L 3375 4234
L 2144 4234
L 2144 3653
L 3781 3653
Q 3744 4397 3713 5297
L 4194 5297
Q 4197 4419 4241 3653
L 6319 3653
L 6319 3234
L 4266 3234
Q 4331 2081 4563 1269
Q 5034 1941 5394 2766
L 5825 2566
Q 5344 1531 4744 738
Q 4938 278 5200 -34
Q 5363 -222 5500 -222
Q 5669 -222 5725 28
Q 5800 366 5869 878
Q 6119 766 6319 709
Q 6238 178 6138 -234
Q 5981 -791 5581 -791
Q 5125 -791 4713 -209
Q 4544 22 4406 319
Q 3869 -297 3250 -741
Q 3063 -528 2881 -416
z
M 1006 1472
L 1863 1472
L 1863 2047
L 2306 2047
L 2306 1472
L 3488 1472
L 3488 1078
L 2306 1078
L 2306 497
Q 2878 544 3513 597
Q 3494 397 3494 191
Q 2931 153 2306 100
L 2306 -816
L 1863 -816
L 1863 59
Q 1128 -3 313 -91
L 213 359
Q 956 400 1863 466
L 1863 1078
L 488 1078
L 488 1484
Q 741 1813 984 2216
L 275 2216
L 275 2609
L 1213 2609
Q 1366 2888 1513 3197
L 1975 3053
Q 1847 2819 1725 2609
L 3538 2609
L 3538 2216
L 1491 2216
Q 1231 1791 1006 1472
z
M 4613 4841
L 4919 5147
Q 5550 4672 5944 4303
L 5588 3941
Q 5163 4397 4613 4841
z
" transform="scale(0.015625)"/>
      <path id="MicrosoftYaHei-32" d="M 3178 0
L 625 0
L 625 4841
L 1250 4841
L 1250 553
L 3178 553
L 3178 0
z
" transform="scale(0.015625)"/>
     </defs>
     <use xlink:href="#MicrosoftYaHei-abf"/>
     <use xlink:href="#MicrosoftYaHei-afa" transform="translate(100 0)"/>
     <use xlink:href="#MicrosoftYaHei-3" transform="translate(200 0)"/>
     <use xlink:href="#MicrosoftYaHei-38" transform="translate(229.59375 0)"/>
     <use xlink:href="#MicrosoftYaHei-32" transform="translate(294.875 0)"/>
    </g>
    <!-- 100 Ω-10 kΩ -->
    <g style="fill: #2475d8" transform="translate(333.978 187.296465) scale(0.13 -0.13)">
     <defs>
      <path id="MicrosoftYaHei-17" d="M 1781 0
L 1781 4141
Q 1638 3997 1295 3819
Q 953 3641 663 3569
L 663 4169
Q 1047 4275 1484 4508
Q 1922 4741 2156 4947
L 2388 4947
L 2388 0
L 1781 0
z
" transform="scale(0.015625)"/>
      <path id="MicrosoftYaHei-16" d="M 284 2325
Q 284 3606 709 4264
Q 1134 4922 1941 4922
Q 3478 4922 3478 2441
Q 3478 1216 3045 567
Q 2613 -81 1831 -81
Q 1094 -81 689 534
Q 284 1150 284 2325
z
M 909 2353
Q 909 425 1888 425
Q 2850 425 2850 2384
Q 2850 4413 1906 4413
Q 909 4413 909 2353
z
" transform="scale(0.015625)"/>
      <path id="MicrosoftYaHei-13" d="M 2328 1681
L 488 1681
L 488 2153
L 2328 2153
L 2328 1681
z
" transform="scale(0.015625)"/>
      <path id="MicrosoftYaHei-51" d="M 3484 0
L 2650 0
L 1172 1666
L 1159 1666
L 1159 0
L 547 0
L 547 5116
L 1159 5116
L 1159 1872
L 1172 1872
L 2575 3456
L 3363 3456
L 1800 1794
L 3484 0
z
" transform="scale(0.015625)"/>
     </defs>
     <use xlink:href="#MicrosoftYaHei-17"/>
     <use xlink:href="#MicrosoftYaHei-16" transform="translate(58.640625 0)"/>
     <use xlink:href="#MicrosoftYaHei-16" transform="translate(117.28125 0)"/>
     <use xlink:href="#MicrosoftYaHei-3" transform="translate(175.921875 0)"/>
     <use xlink:href="#MicrosoftYaHei-153" transform="translate(205.515625 0)"/>
     <use xlink:href="#MicrosoftYaHei-13" transform="translate(287.203125 0)"/>
     <use xlink:href="#MicrosoftYaHei-17" transform="translate(330.46875 0)"/>
     <use xlink:href="#MicrosoftYaHei-16" transform="translate(389.109375 0)"/>
     <use xlink:href="#MicrosoftYaHei-3" transform="translate(447.75 0)"/>
     <use xlink:href="#MicrosoftYaHei-51" transform="translate(477.34375 0)"/>
     <use xlink:href="#MicrosoftYaHei-153" transform="translate(531.78125 0)"/>
    </g>
   </g>
   <g id="text_4">
    <!-- Rth = 1 kΩ ∥ 2 kΩ ≈ 666.7 Ω；等效电压源 Vth = 8 V -->
    <g style="fill: #2475d8" transform="translate(18 327.481655) scale(0.12 -0.12)">
     <defs>
      <path id="MicrosoftYaHei-276" d="M 2803 4038
L 3231 4038
L 3231 0
L 2803 0
L 2803 4038
z
M 1422 4038
L 1856 4038
L 1856 0
L 1422 0
L 1422 4038
z
" transform="scale(0.015625)"/>
      <path id="MicrosoftYaHei-18" d="M 2666 3572
Q 2666 3963 2419 4186
Q 2172 4409 1747 4409
Q 1447 4409 1140 4256
Q 834 4103 569 3819
L 569 4413
Q 806 4659 1107 4790
Q 1409 4922 1816 4922
Q 2472 4922 2872 4570
Q 3272 4219 3272 3619
Q 3272 3084 3026 2693
Q 2781 2303 2188 1894
Q 1581 1475 1376 1294
Q 1172 1113 1090 947
Q 1009 781 1009 544
L 3416 544
L 3416 0
L 372 0
L 372 241
Q 372 659 486 951
Q 600 1244 862 1520
Q 1125 1797 1681 2184
Q 2250 2584 2458 2886
Q 2666 3188 2666 3572
z
" transform="scale(0.015625)"/>
      <path id="MicrosoftYaHei-37a" d="M 1606 3531
Q 1772 3531 1890 3415
Q 2009 3300 2009 3138
Q 2009 2975 1893 2858
Q 1778 2741 1606 2741
Q 1434 2741 1318 2858
Q 1203 2975 1203 3138
Q 1203 3300 1322 3415
Q 1441 3531 1606 3531
z
M 1931 775
L 1403 -891
L 966 -891
L 1350 775
L 1931 775
z
" transform="scale(0.015625)"/>
      <path id="MicrosoftYaHei-988" d="M 125 2303
L 2913 2303
L 2913 2922
L 563 2922
L 563 3328
L 2913 3328
L 2913 3822
L 3400 3822
L 3400 3328
L 5850 3328
L 5850 2922
L 3400 2922
L 3400 2303
L 6288 2303
L 6288 1884
L 125 1884
L 125 2303
z
M 338 1272
L 4250 1272
L 4250 1766
L 4738 1766
L 4738 1272
L 6075 1272
L 6075 853
L 4738 853
L 4738 22
Q 4738 -766 3925 -766
Q 3450 -766 2969 -759
Q 2938 -534 2875 -228
Q 3375 -278 3794 -278
Q 4250 -278 4250 91
L 4250 853
L 338 853
L 338 1272
z
M 1294 5347
L 1831 5347
Q 1688 5041 1513 4759
L 3325 4759
L 3325 4372
L 1244 4372
Q 875 3878 388 3459
Q 263 3609 75 3797
Q 856 4428 1294 5347
z
M 3969 5347
L 4506 5347
Q 4366 5038 4213 4759
L 6225 4759
L 6225 4372
L 3984 4372
Q 3772 4038 3538 3759
Q 3275 3947 3119 4009
Q 3663 4597 3969 5347
z
M 1500 491
L 1831 809
Q 2256 447 2700 28
L 2338 -316
Q 2000 41 1500 491
z
M 2019 3441
Q 1781 3753 1500 4078
L 1825 4309
Q 2125 4022 2388 3722
L 2019 3441
z
M 4744 3441
Q 4625 3628 4238 4078
L 4563 4309
Q 4900 3984 5113 3722
L 4744 3441
z
" transform="scale(0.015625)"/>
      <path id="MicrosoftYaHei-77c" d="M 4088 5334
L 4581 5253
Q 4453 4653 4259 4122
L 6269 4122
L 6269 3697
L 5838 3697
Q 5672 1869 5050 841
Q 5572 128 6388 -347
Q 6188 -622 6050 -841
Q 5250 -313 4728 391
Q 4153 -328 3300 -891
Q 3163 -709 2944 -497
Q 3872 125 4428 853
Q 3897 1797 3753 3025
Q 3603 2766 3431 2528
Q 3300 2716 3119 2928
Q 3844 3941 4088 5334
z
M 694 1909
L 1031 2203
Q 1456 1800 1863 1394
Q 2138 1847 2350 2378
L 2800 2141
Q 2538 1550 2209 1047
Q 2659 591 3088 134
L 2669 -222
Q 2275 225 1913 625
Q 1250 -238 356 -809
Q 238 -641 31 -397
Q 947 128 1584 981
Q 1113 1491 694 1909
z
M 5344 3697
L 4125 3697
Q 4222 2322 4741 1338
Q 5263 2306 5344 3697
z
M 175 4297
L 3325 4297
L 3325 3872
L 175 3872
L 175 4297
z
M 1063 3628
L 1475 3372
Q 963 2641 413 1953
Q 256 2084 44 2241
Q 506 2797 1063 3628
z
M 2344 3609
Q 2744 3197 3263 2591
L 2894 2278
Q 2506 2759 2006 3341
L 2344 3609
z
M 1306 5141
L 1731 5359
Q 1988 4953 2206 4547
L 1769 4322
Q 1544 4772 1306 5141
z
" transform="scale(0.015625)"/>
      <path id="MicrosoftYaHei-904" d="M 406 4497
L 2713 4497
L 2713 5297
L 3231 5297
L 3231 4497
L 5544 4497
L 5544 984
L 3231 984
L 3231 253
Q 3231 -128 3631 -128
L 5094 -128
Q 5519 -128 5613 153
Q 5713 459 5756 1034
Q 5938 953 6275 841
Q 6200 341 6106 -16
Q 5950 -603 5256 -603
L 3594 -603
Q 2713 -603 2713 259
L 2713 984
L 925 984
L 925 553
L 406 553
L 406 4497
z
M 5025 1453
L 5025 2522
L 3231 2522
L 3231 1453
L 5025 1453
z
M 925 1453
L 2713 1453
L 2713 2522
L 925 2522
L 925 1453
z
M 5025 4028
L 3231 4028
L 3231 2966
L 5025 2966
L 5025 4028
z
M 925 2966
L 2713 2966
L 2713 4028
L 925 4028
L 925 2966
z
" transform="scale(0.015625)"/>
      <path id="MicrosoftYaHei-539" d="M 1363 3
L 3538 3
L 3538 2216
L 1819 2216
L 1819 2684
L 3538 2684
L 3538 4078
L 4063 4078
L 4063 2684
L 5994 2684
L 5994 2216
L 4063 2216
L 4063 3
L 6250 3
L 6250 -459
L 1363 -459
L 1363 3
z
M 1363 2772
Q 1363 1378 1188 672
Q 1006 -59 488 -803
Q 338 -622 100 -384
Q 563 303 694 884
Q 838 1459 838 2653
L 838 4866
L 6219 4866
L 6219 4391
L 1363 4391
L 1363 2772
z
M 4588 1516
L 4938 1803
Q 5413 1316 5881 791
L 5469 459
Q 4875 1191 4588 1516
z
" transform="scale(0.015625)"/>
      <path id="MicrosoftYaHei-89b" d="M 2931 3741
L 3744 3741
Q 3878 4094 4006 4478
L 2425 4478
L 2425 2678
Q 2425 222 1463 -841
Q 1313 -647 1100 -453
Q 1963 509 1963 2672
L 1963 4903
L 6300 4903
L 6300 4478
L 4547 4478
Q 4375 4103 4194 3741
L 5844 3741
L 5844 1178
L 5394 1178
L 5394 1341
L 4588 1341
L 4588 -128
Q 4588 -797 3938 -797
Q 3725 -797 3394 -791
Q 3363 -603 3306 -359
Q 3619 -384 3850 -384
Q 4138 -384 4138 -84
L 4138 1341
L 3381 1341
L 3381 1178
L 2931 1178
L 2931 3741
z
M 831 1878
Q 1056 1734 1275 1666
Q 1019 603 700 -766
L 219 -603
Q 581 678 831 1878
z
M 3381 1753
L 5394 1753
L 5394 2347
L 3381 2347
L 3381 1753
z
M 5394 3328
L 3381 3328
L 3381 2747
L 5394 2747
L 5394 3328
z
M 6288 -241
L 5894 -541
Q 5450 128 4931 759
L 5294 1016
Q 5863 353 6288 -241
z
M 2363 -297
Q 2894 272 3306 984
L 3706 741
Q 3231 -16 2731 -584
L 2363 -297
z
M 400 3622
Q 888 3272 1500 2784
Q 1281 2522 1144 2378
Q 544 2909 88 3266
L 400 3622
z
M 669 5228
Q 1163 4859 1688 4384
Q 1469 4172 1313 4003
Q 769 4541 350 4884
L 669 5228
z
" transform="scale(0.015625)"/>
     </defs>
     <use xlink:href="#MicrosoftYaHei-38"/>
     <use xlink:href="#MicrosoftYaHei-5a" transform="translate(65.28125 0)"/>
     <use xlink:href="#MicrosoftYaHei-4e" transform="translate(102.53125 0)"/>
     <use xlink:href="#MicrosoftYaHei-3" transform="translate(164.109375 0)"/>
     <use xlink:href="#MicrosoftYaHei-23" transform="translate(193.703125 0)"/>
     <use xlink:href="#MicrosoftYaHei-3" transform="translate(267.875 0)"/>
     <use xlink:href="#MicrosoftYaHei-17" transform="translate(297.46875 0)"/>
     <use xlink:href="#MicrosoftYaHei-3" transform="translate(356.109375 0)"/>
     <use xlink:href="#MicrosoftYaHei-51" transform="translate(385.703125 0)"/>
     <use xlink:href="#MicrosoftYaHei-153" transform="translate(440.140625 0)"/>
     <use xlink:href="#MicrosoftYaHei-3" transform="translate(521.828125 0)"/>
     <use xlink:href="#MicrosoftYaHei-276" transform="translate(551.421875 0)"/>
     <use xlink:href="#MicrosoftYaHei-3" transform="translate(624.21875 0)"/>
     <use xlink:href="#MicrosoftYaHei-18" transform="translate(653.8125 0)"/>
     <use xlink:href="#MicrosoftYaHei-3" transform="translate(712.453125 0)"/>
     <use xlink:href="#MicrosoftYaHei-51" transform="translate(742.046875 0)"/>
     <use xlink:href="#MicrosoftYaHei-153" transform="translate(796.484375 0)"/>
     <use xlink:href="#MicrosoftYaHei-3" transform="translate(878.171875 0)"/>
     <use xlink:href="#MicrosoftYaHei-282" transform="translate(907.765625 0)"/>
     <use xlink:href="#MicrosoftYaHei-3" transform="translate(982.03125 0)"/>
     <use xlink:href="#MicrosoftYaHei-1c" transform="translate(1011.625 0)"/>
     <use xlink:href="#MicrosoftYaHei-1c" transform="translate(1070.265625 0)"/>
     <use xlink:href="#MicrosoftYaHei-1c" transform="translate(1128.90625 0)"/>
     <use xlink:href="#MicrosoftYaHei-14" transform="translate(1187.546875 0)"/>
     <use xlink:href="#MicrosoftYaHei-1d" transform="translate(1211.625 0)"/>
     <use xlink:href="#MicrosoftYaHei-3" transform="translate(1270.265625 0)"/>
     <use xlink:href="#MicrosoftYaHei-153" transform="translate(1299.859375 0)"/>
     <use xlink:href="#MicrosoftYaHei-37a" transform="translate(1381.546875 0)"/>
     <use xlink:href="#MicrosoftYaHei-988" transform="translate(1481.546875 0)"/>
     <use xlink:href="#MicrosoftYaHei-77c" transform="translate(1581.546875 0)"/>
     <use xlink:href="#MicrosoftYaHei-904" transform="translate(1681.546875 0)"/>
     <use xlink:href="#MicrosoftYaHei-539" transform="translate(1781.546875 0)"/>
     <use xlink:href="#MicrosoftYaHei-89b" transform="translate(1881.546875 0)"/>
     <use xlink:href="#MicrosoftYaHei-3" transform="translate(1981.546875 0)"/>
     <use xlink:href="#MicrosoftYaHei-3c" transform="translate(2011.140625 0)"/>
     <use xlink:href="#MicrosoftYaHei-5a" transform="translate(2078.765625 0)"/>
     <use xlink:href="#MicrosoftYaHei-4e" transform="translate(2116.015625 0)"/>
     <use xlink:href="#MicrosoftYaHei-3" transform="translate(2177.59375 0)"/>
     <use xlink:href="#MicrosoftYaHei-23" transform="translate(2207.1875 0)"/>
     <use xlink:href="#MicrosoftYaHei-3" transform="translate(2281.359375 0)"/>
     <use xlink:href="#MicrosoftYaHei-1e" transform="translate(2310.953125 0)"/>
     <use xlink:href="#MicrosoftYaHei-3" transform="translate(2369.59375 0)"/>
     <use xlink:href="#MicrosoftYaHei-3c" transform="translate(2399.1875 0)"/>
    </g>
   </g>
   <g id="text_5">
    <!-- ② 戴维南定理：等效电路接入负载 -->
    <g style="fill: #193650" transform="translate(18 31.3975) scale(0.16 -0.16)">
     <defs>
      <path id="MicrosoftYaHei-293" d="M 3200 4684
Q 4416 4684 5286 3814
Q 6156 2944 6156 1728
Q 6156 513 5286 -357
Q 4416 -1228 3200 -1228
Q 1984 -1228 1114 -357
Q 244 513 244 1728
Q 244 2944 1114 3814
Q 1984 4684 3200 4684
z
M 3200 -844
Q 4259 -844 5015 -87
Q 5772 669 5772 1728
Q 5772 2788 5015 3544
Q 4259 4300 3200 4300
Q 2141 4300 1384 3544
Q 628 2788 628 1728
Q 628 669 1384 -87
Q 2141 -844 3200 -844
z
M 2009 91
L 2009 519
L 3138 1622
Q 3447 1925 3608 2164
Q 3769 2403 3769 2663
Q 3769 3225 3138 3225
Q 2697 3225 2188 2828
L 2188 3353
Q 2659 3675 3213 3675
Q 3719 3675 4003 3415
Q 4288 3156 4288 2713
Q 4288 2456 4170 2200
Q 4053 1944 3828 1700
Q 3603 1456 3025 900
L 2656 538
L 4263 538
L 4263 91
L 2009 91
z
" transform="scale(0.015625)"/>
      <path id="MicrosoftYaHei-6ee" d="M 3581 -166
Q 4084 250 4491 794
Q 4206 1881 4178 3666
L 144 3666
L 144 4041
L 1775 4041
L 1775 4466
L 375 4466
L 375 4803
L 1775 4803
L 1775 5334
L 2225 5334
L 2225 4803
L 3600 4803
L 3600 4466
L 2225 4466
L 2225 4041
L 4169 4041
Q 4153 4672 4150 5341
L 4613 5341
Q 4606 4675 4625 4041
L 6300 4041
L 6300 3666
L 4634 3666
Q 4663 2231 4838 1313
Q 5325 2122 5631 3159
L 6106 2984
Q 5659 1666 4988 691
Q 5128 231 5325 -34
Q 5500 -278 5644 -278
Q 5756 -278 5813 -41
Q 5875 297 5919 859
Q 6156 741 6363 684
Q 6300 172 6231 -172
Q 6106 -809 5706 -809
Q 5256 -809 4919 -259
Q 4781 -25 4666 253
Q 4334 -156 3956 -497
Q 3800 -347 3581 -166
z
M 150 553
L 1181 553
L 1181 1022
L 313 1022
L 313 1347
L 1181 1347
L 1181 1772
L 869 1772
L 869 1641
L 481 1641
L 481 3347
L 3575 3347
L 3575 1641
L 3188 1641
L 3188 1772
L 2856 1772
L 2856 1347
L 3700 1347
L 3700 1022
L 2856 1022
L 2856 553
L 3850 553
L 3850 228
L 150 228
L 150 553
z
M 1450 159
L 1725 -147
Q 1044 -534 381 -828
Q 294 -666 163 -466
Q 825 -197 1450 159
z
M 2331 -153
L 2556 153
Q 3181 -147 3750 -459
L 3494 -828
Q 2913 -472 2331 -153
z
M 4919 4953
L 5213 5247
Q 5688 4859 6088 4497
L 5744 4153
Q 5375 4547 4919 4953
z
M 1569 553
L 2469 553
L 2469 1022
L 1569 1022
L 1569 553
z
M 1569 1347
L 2469 1347
L 2469 1772
L 1569 1772
L 1569 1347
z
M 2206 2072
L 3188 2072
L 3188 2434
L 2206 2434
L 2206 2072
z
M 869 2072
L 1844 2072
L 1844 2434
L 869 2434
L 869 2072
z
M 3188 3047
L 2206 3047
L 2206 2697
L 3188 2697
L 3188 3047
z
M 869 2697
L 1844 2697
L 1844 3047
L 869 3047
L 869 2697
z
" transform="scale(0.015625)"/>
      <path id="MicrosoftYaHei-9d3" d="M 1900 2791
Q 2713 3909 3256 5334
L 3738 5178
Q 3488 4634 3247 4166
L 6175 4166
L 6175 3741
L 4806 3741
L 4806 2797
L 6125 2797
L 6125 2372
L 4806 2372
L 4806 1428
L 6125 1428
L 6125 1003
L 4806 1003
L 4806 34
L 6250 34
L 6250 -391
L 3075 -391
L 3075 -816
L 2600 -816
L 2600 2981
Q 2400 2650 2213 2378
Q 2094 2572 1900 2791
z
M 794 1616
Q 1388 1684 2100 1766
Q 2069 1459 2050 1316
Q 906 1184 275 1072
L 181 1534
Q 534 1863 1097 2872
Q 550 2834 200 2803
L 81 3197
Q 681 4153 1138 5347
L 1625 5172
Q 1100 4053 613 3234
Q 834 3234 1297 3244
Q 1516 3656 1763 4159
L 2213 3959
Q 1338 2403 794 1616
z
M 3075 34
L 4331 34
L 4331 1003
L 3075 1003
L 3075 34
z
M 3075 1428
L 4331 1428
L 4331 2372
L 3075 2372
L 3075 1428
z
M 3075 2797
L 4331 2797
L 4331 3741
L 3075 3741
L 3075 2797
z
M 119 72
Q 1113 247 2288 503
Q 2269 247 2269 22
Q 1025 -241 238 -397
L 119 72
z
M 4119 5078
L 4506 5322
Q 4869 4866 5100 4472
L 4688 4209
Q 4463 4609 4119 5078
z
" transform="scale(0.015625)"/>
      <path id="MicrosoftYaHei-527" d="M 163 4553
L 2969 4553
L 2969 5259
L 3481 5259
L 3481 4553
L 6219 4553
L 6219 4109
L 3481 4109
L 3481 3472
L 5875 3472
L 5875 -72
Q 5875 -803 5150 -809
Q 4738 -816 4119 -791
Q 4081 -559 4025 -278
Q 4644 -316 4969 -316
Q 5381 -316 5381 47
L 5381 3034
L 1056 3034
L 1056 -834
L 563 -834
L 563 3472
L 2969 3472
L 2969 4109
L 163 4109
L 163 4553
z
M 1300 909
L 2975 909
L 2975 1591
L 1500 1591
L 1500 2003
L 3463 2003
Q 3763 2453 4069 2991
L 4531 2734
Q 4225 2316 3975 2003
L 4938 2003
L 4938 1591
L 3463 1591
L 3463 909
L 5138 909
L 5138 497
L 3463 497
L 3463 -703
L 2975 -703
L 2975 497
L 1300 497
L 1300 909
z
M 1913 2741
L 2281 2991
Q 2600 2622 2863 2272
L 2450 2016
Q 2200 2378 1913 2741
z
" transform="scale(0.015625)"/>
      <path id="MicrosoftYaHei-614" d="M 81 -384
Q 1119 509 1281 2241
L 1806 2159
Q 1731 1581 1578 1081
Q 2063 50 3081 -103
L 3081 2647
L 225 2647
L 225 3116
L 6163 3116
L 6163 2647
L 3600 2647
L 3600 1634
L 5775 1634
L 5775 1172
L 3600 1172
L 3600 -138
Q 4844 -169 6306 -116
Q 6200 -359 6125 -634
Q 4594 -653 3450 -616
Q 2041 -616 1378 528
Q 1022 -300 413 -872
Q 269 -628 81 -384
z
M 450 4566
L 3116 4566
Q 2931 4834 2725 5091
L 3200 5347
Q 3444 5066 3731 4716
L 3450 4566
L 5981 4566
L 5981 3378
L 5488 3378
L 5488 4097
L 944 4097
L 944 3384
L 450 3384
L 450 4566
z
" transform="scale(0.015625)"/>
      <path id="MicrosoftYaHei-8f2" d="M 2031 -166
L 3988 -166
L 3988 734
L 2394 734
L 2394 1172
L 3988 1172
L 3988 1997
L 2988 1997
L 2988 1766
L 2525 1766
L 2525 4991
L 5913 4991
L 5913 1766
L 5450 1766
L 5450 1997
L 4450 1997
L 4450 1172
L 6044 1172
L 6044 734
L 4450 734
L 4450 -166
L 6319 -166
L 6319 -603
L 2031 -603
L 2031 -166
z
M 44 203
Q 525 319 975 434
L 975 2328
L 194 2328
L 194 2766
L 975 2766
L 975 4328
L 131 4328
L 131 4766
L 2281 4766
L 2281 4328
L 1438 4328
L 1438 2766
L 2231 2766
L 2231 2328
L 1438 2328
L 1438 559
Q 1850 675 2238 791
Q 2269 509 2306 303
Q 1238 16 213 -303
L 44 203
z
M 4450 2422
L 5450 2422
L 5450 3291
L 4450 3291
L 4450 2422
z
M 2988 2422
L 3988 2422
L 3988 3291
L 2988 3291
L 2988 2422
z
M 5450 4566
L 4450 4566
L 4450 3703
L 5450 3703
L 5450 4566
z
M 2988 3703
L 3988 3703
L 3988 4566
L 2988 4566
L 2988 3703
z
" transform="scale(0.015625)"/>
      <path id="MicrosoftYaHei-379" d="M 1606 3531
Q 1772 3531 1890 3415
Q 2009 3300 2009 3138
Q 2009 2975 1893 2858
Q 1778 2741 1606 2741
Q 1434 2741 1318 2858
Q 1203 2975 1203 3138
Q 1203 3300 1322 3415
Q 1441 3531 1606 3531
z
M 1606 716
Q 1772 716 1890 600
Q 2009 484 2009 319
Q 2009 150 1890 36
Q 1772 -78 1606 -78
Q 1441 -78 1322 36
Q 1203 150 1203 319
Q 1203 484 1322 600
Q 1441 716 1606 716
z
" transform="scale(0.015625)"/>
      <path id="MicrosoftYaHei-ae8" d="M 481 2416
L 894 2416
L 894 106
Q 1147 144 1413 184
L 1413 3041
L 913 3041
L 913 2834
L 463 2834
L 463 4953
L 2513 4953
L 2513 3041
L 1850 3041
L 1850 1984
L 2500 1984
L 2500 1559
L 1850 1559
L 1850 250
Q 2241 313 2650 384
Q 2638 172 2638 -72
Q 1419 -278 225 -484
L 100 3
Q 288 25 481 50
L 481 2416
z
M 2575 3428
Q 3231 4234 3713 5359
L 4175 5191
Q 4041 4909 3906 4653
L 5881 4653
L 5881 4234
Q 5472 3463 4797 2809
Q 5413 2388 6313 2178
Q 6188 1903 6106 1659
Q 5125 1994 4441 2500
Q 3759 1972 2788 1559
Q 2725 1684 2538 2003
Q 3384 2306 4072 2816
Q 3694 3191 3391 3756
Q 3138 3366 2888 3059
Q 2738 3259 2575 3428
z
M 3038 1584
L 5756 1584
L 5756 -847
L 5288 -847
L 5288 -547
L 3506 -547
L 3506 -847
L 3038 -847
L 3038 1584
z
M 5288 1147
L 3506 1147
L 3506 -109
L 5288 -109
L 5288 1147
z
M 2063 3466
L 2063 4528
L 913 4528
L 913 3466
L 2063 3466
z
M 5344 4228
L 3675 4228
Q 3656 4197 3638 4166
Q 3953 3531 4425 3103
Q 4988 3606 5344 4228
z
" transform="scale(0.015625)"/>
      <path id="MicrosoftYaHei-74e" d="M 1800 -366
Q 3019 -188 3784 222
Q 3200 484 2531 772
Q 2800 1119 3028 1466
L 2000 1466
L 2000 1884
L 3291 1884
Q 3491 2222 3656 2559
L 4119 2366
Q 3969 2116 3822 1884
L 6225 1884
L 6225 1466
L 5403 1466
Q 5156 778 4672 306
Q 5469 -25 6219 -353
L 5944 -816
Q 5241 -444 4288 -3
Q 3450 -572 2038 -841
Q 1950 -634 1800 -366
z
M 100 1966
Q 544 2088 963 2213
L 963 3641
L 175 3641
L 175 4091
L 963 4091
L 963 5259
L 1425 5259
L 1425 4091
L 2144 4091
L 2144 3641
L 1425 3641
L 1425 2356
Q 1722 2450 2006 2547
Q 2013 2266 2044 2059
Q 1722 1956 1425 1856
L 1425 -72
Q 1425 -747 819 -753
Q 588 -759 231 -747
Q 206 -491 156 -228
Q 531 -266 688 -266
Q 963 -266 963 66
L 963 1703
Q 534 1559 163 1428
L 100 1966
z
M 2019 3072
L 4453 3072
Q 4850 3622 5156 4103
L 5625 3847
Q 5300 3456 4966 3072
L 6269 3072
L 6269 2653
L 2019 2653
L 2019 3072
z
M 2263 4591
L 4028 4591
Q 3881 4875 3719 5153
L 4138 5347
Q 4338 5009 4519 4666
L 4359 4591
L 6119 4591
L 6119 4172
L 2263 4172
L 2263 4591
z
M 3181 909
Q 3703 703 4203 497
Q 4694 894 4900 1466
L 3553 1466
Q 3363 1175 3181 909
z
M 2825 3853
L 3188 4097
Q 3481 3753 3756 3372
L 3356 3103
Q 3119 3491 2825 3853
z
" transform="scale(0.015625)"/>
      <path id="MicrosoftYaHei-4b5" d="M 1831 4947
L 2244 5241
Q 2944 4809 3781 3028
Q 4950 472 6319 -91
L 5881 -641
Q 4513 172 3350 2784
Q 3256 2994 3166 3184
Q 2441 700 469 -678
Q 300 -428 88 -209
Q 2116 1069 2819 3834
Q 2328 4653 1831 4947
z
" transform="scale(0.015625)"/>
     </defs>
     <use xlink:href="#MicrosoftYaHei-293"/>
     <use xlink:href="#MicrosoftYaHei-3" transform="translate(100 0)"/>
     <use xlink:href="#MicrosoftYaHei-6ee" transform="translate(129.59375 0)"/>
     <use xlink:href="#MicrosoftYaHei-9d3" transform="translate(229.59375 0)"/>
     <use xlink:href="#MicrosoftYaHei-527" transform="translate(329.59375 0)"/>
     <use xlink:href="#MicrosoftYaHei-614" transform="translate(429.59375 0)"/>
     <use xlink:href="#MicrosoftYaHei-8f2" transform="translate(529.59375 0)"/>
     <use xlink:href="#MicrosoftYaHei-379" transform="translate(629.59375 0)"/>
     <use xlink:href="#MicrosoftYaHei-988" transform="translate(729.59375 0)"/>
     <use xlink:href="#MicrosoftYaHei-77c" transform="translate(829.59375 0)"/>
     <use xlink:href="#MicrosoftYaHei-904" transform="translate(929.59375 0)"/>
     <use xlink:href="#MicrosoftYaHei-ae8" transform="translate(1029.59375 0)"/>
     <use xlink:href="#MicrosoftYaHei-74e" transform="translate(1129.59375 0)"/>
     <use xlink:href="#MicrosoftYaHei-4b5" transform="translate(1229.59375 0)"/>
     <use xlink:href="#MicrosoftYaHei-abf" transform="translate(1329.59375 0)"/>
     <use xlink:href="#MicrosoftYaHei-afa" transform="translate(1429.59375 0)"/>
    </g>
   </g>
   <g id="patch_3">
    <path d="M 317.598 108.5675
C 318.528863 108.5675 319.421725 108.197664 320.079945 107.539445
C 320.738164 106.881225 321.108 105.988363 321.108 105.0575
C 321.108 104.126637 320.738164 103.233775 320.079945 102.575555
C 319.421725 101.917336 318.528863 101.5475 317.598 101.5475
C 316.667137 101.5475 315.774275 101.917336 315.116055 102.575555
C 314.457836 103.233775 314.088 104.126637 314.088 105.0575
C 314.088 105.988363 314.457836 106.881225 315.116055 107.539445
C 315.774275 108.197664 316.667137 108.5675 317.598 108.5675
z
" clip-path="url(#p2dc7c588a2)" style="fill: #193650; stroke: #193650; stroke-width: 1.8; stroke-linejoin: miter"/>
   </g>
   <g id="text_6">
    <!-- a (+) -->
    <g style="fill: #193650" transform="translate(325.788 108.856953) scale(0.13 -0.13)">
     <defs>
      <path id="MicrosoftYaHei-47" d="M 628 3216
Q 1144 3538 1819 3538
Q 3069 3538 3069 2225
L 3069 0
L 2463 0
L 2463 534
L 2447 534
Q 2088 -81 1388 -81
Q 884 -81 587 191
Q 291 463 291 925
Q 291 1894 1438 2053
L 2463 2197
Q 2463 3044 1763 3044
Q 1141 3044 628 2625
L 628 3216
z
M 1653 1625
Q 1228 1569 1067 1412
Q 906 1256 906 975
Q 906 728 1081 572
Q 1256 416 1544 416
Q 1944 416 2203 697
Q 2463 978 2463 1403
L 2463 1734
L 1653 1625
z
" transform="scale(0.015625)"/>
      <path id="MicrosoftYaHei-e" d="M 1531 -1100
Q 478 100 478 1847
Q 478 3594 1531 4841
L 2072 4841
Q 1016 3544 1016 1853
Q 1016 166 2066 -1100
L 1531 -1100
z
" transform="scale(0.015625)"/>
      <path id="MicrosoftYaHei-11" d="M 3972 1772
L 2613 1772
L 2613 419
L 2141 419
L 2141 1772
L 788 1772
L 788 2250
L 2141 2250
L 2141 3603
L 2613 3603
L 2613 2250
L 3972 2250
L 3972 1772
z
" transform="scale(0.015625)"/>
      <path id="MicrosoftYaHei-f" d="M 78 -1100
Q 1131 163 1131 1853
Q 1131 3547 72 4841
L 616 4841
Q 1672 3603 1672 1847
Q 1672 91 616 -1100
L 78 -1100
z
" transform="scale(0.015625)"/>
     </defs>
     <use xlink:href="#MicrosoftYaHei-47"/>
     <use xlink:href="#MicrosoftYaHei-3" transform="translate(55.28125 0)"/>
     <use xlink:href="#MicrosoftYaHei-e" transform="translate(84.875 0)"/>
     <use xlink:href="#MicrosoftYaHei-11" transform="translate(118.28125 0)"/>
     <use xlink:href="#MicrosoftYaHei-f" transform="translate(192.453125 0)"/>
    </g>
   </g>
   <g id="patch_4">
    <path d="M 317.598 248.9675
C 318.528863 248.9675 319.421725 248.597664 320.079945 247.939445
C 320.738164 247.281225 321.108 246.388363 321.108 245.4575
C 321.108 244.526637 320.738164 243.633775 320.079945 242.975555
C 319.421725 242.317336 318.528863 241.9475 317.598 241.9475
C 316.667137 241.9475 315.774275 242.317336 315.116055 242.975555
C 314.457836 243.633775 314.088 244.526637 314.088 245.4575
C 314.088 246.388363 314.457836 247.281225 315.116055 247.939445
C 315.774275 248.597664 316.667137 248.9675 317.598 248.9675
z
" clip-path="url(#p2dc7c588a2)" style="fill: #193650; stroke: #193650; stroke-width: 1.8; stroke-linejoin: miter"/>
   </g>
   <g id="text_7">
    <!-- b (−) -->
    <g style="fill: #193650" transform="translate(325.788 249.53625) scale(0.13 -0.13)">
     <defs>
      <path id="MicrosoftYaHei-48" d="M 1159 488
L 1159 0
L 547 0
L 547 5116
L 1159 5116
L 1159 2859
L 1172 2859
Q 1578 3538 2359 3538
Q 3009 3538 3392 3080
Q 3775 2622 3775 1828
Q 3775 953 3345 436
Q 2916 -81 2200 -81
Q 1525 -81 1172 488
L 1159 488
z
M 1156 1422
Q 1156 1003 1428 714
Q 1700 425 2109 425
Q 2597 425 2872 800
Q 3147 1175 3147 1838
Q 3147 2384 2890 2707
Q 2634 3031 2191 3031
Q 1741 3031 1448 2709
Q 1156 2388 1156 1891
L 1156 1422
z
" transform="scale(0.015625)"/>
      <path id="MicrosoftYaHei-25d" d="M 3972 1772
L 788 1772
L 788 2250
L 3972 2250
L 3972 1772
z
" transform="scale(0.015625)"/>
     </defs>
     <use xlink:href="#MicrosoftYaHei-48"/>
     <use xlink:href="#MicrosoftYaHei-3" transform="translate(63.875 0)"/>
     <use xlink:href="#MicrosoftYaHei-e" transform="translate(93.46875 0)"/>
     <use xlink:href="#MicrosoftYaHei-25d" transform="translate(126.875 0)"/>
     <use xlink:href="#MicrosoftYaHei-f" transform="translate(201.046875 0)"/>
    </g>
   </g>
  </g>
 </g>
 <defs>
  <clipPath id="p2dc7c588a2">
   <rect x="18" y="55.3975" width="431.1216" height="236.392"/>
  </clipPath>
 </defs>
</svg>
